HIERARCHY
ROOT Hips
{
    OFFSET 0.000000 0.000000 0.000000
    CHANNELS 6 Xposition Yposition Zposition Zrotation Xrotation Yrotation
    JOINT Spine
    {
        OFFSET -0.000000 7.246840 0.000000
        CHANNELS 3 Zrotation Xrotation Yrotation
        JOINT Spine1
        {
            OFFSET -0.000000 20.289354 0.000000
            CHANNELS 3 Zrotation Xrotation Yrotation
            JOINT Neck
            {
                OFFSET -0.000000 20.206032 1.836912
                CHANNELS 3 Zrotation Xrotation Yrotation
                JOINT Head
                {
                    OFFSET -0.000000 12.372654 -1.767522
                    CHANNELS 3 Zrotation Xrotation Yrotation
                    End Site
                    {
                        OFFSET -0.000000 22.094025 0.000000
                    }
                }
            }
            JOINT LeftShoulder
            {
                OFFSET 3.465871 17.201674 -0.568930
                CHANNELS 3 Zrotation Xrotation Yrotation
                JOINT LeftArm
                {
                    OFFSET 14.070313 0.000000 0.000000
                    CHANNELS 3 Zrotation Xrotation Yrotation
                    JOINT LeftForeArm
                    {
                        OFFSET 26.549477 0.000000 0.000000
                        CHANNELS 3 Zrotation Xrotation Yrotation
                        JOINT LeftHand
                        {
                            OFFSET 18.880413 0.000000 0.000000
                            CHANNELS 3 Zrotation Xrotation Yrotation
                            End Site
                            {
                                OFFSET 13.256415 0.000000 0.000000
                            }
                        }
                    }
                }
            }
            JOINT RightShoulder
            {
                OFFSET -3.526370 17.201674 -0.568930
                CHANNELS 3 Zrotation Xrotation Yrotation
                JOINT RightArm
                {
                    OFFSET -14.070313 0.000000 0.000000
                    CHANNELS 3 Zrotation Xrotation Yrotation
                    JOINT RightForeArm
                    {
                        OFFSET -26.549477 0.000000 0.000000
                        CHANNELS 3 Zrotation Xrotation Yrotation
                        JOINT RightHand
                        {
                            OFFSET -18.880413 0.000000 0.000000
                            CHANNELS 3 Zrotation Xrotation Yrotation
                            End Site
                            {
                                OFFSET -13.256415 0.000000 0.000000
                            }
                        }
                    }
                }
            }
        }
    }
    JOINT LeftUpLeg
    {
        OFFSET 8.837609 0.000000 0.000000
        CHANNELS 3 Zrotation Xrotation Yrotation
        JOINT LeftLeg
        {
            OFFSET -0.000000 -41.345005 0.000000
            CHANNELS 3 Zrotation Xrotation Yrotation
            JOINT LeftFoot
            {
                OFFSET -0.000000 -35.500874 0.000000
                CHANNELS 3 Zrotation Xrotation Yrotation
                JOINT LeftToeBase
                {
                    OFFSET -0.000000 -5.744446 13.256415
                    CHANNELS 3 Zrotation Xrotation Yrotation
                    End Site
                    {
                        OFFSET -0.000000 0.000000 3.535044
                    }
                }
            }
        }
    }
    JOINT RightUpLeg
    {
        OFFSET -8.837609 0.000000 0.000000
        CHANNELS 3 Zrotation Xrotation Yrotation
        JOINT RightLeg
        {
            OFFSET -0.000000 -41.345005 0.000000
            CHANNELS 3 Zrotation Xrotation Yrotation
            JOINT RightFoot
            {
                OFFSET -0.000000 -35.500874 0.000000
                CHANNELS 3 Zrotation Xrotation Yrotation
                JOINT RightToeBase
                {
                    OFFSET -0.000000 -5.744446 13.256415
                    CHANNELS 3 Zrotation Xrotation Yrotation
                    End Site
                    {
                        OFFSET -0.000000 0.000000 3.535044
                    }
                }
            }
        }
    }
}
MOTION
Frames:    4
Frame Time:    0.010000
18.973431    76.939728    55.064140    -6.965621    -3.454042    -177.518173    -13.030602    4.441843    -11.389020    8.852215    3.332912    -12.154477    9.601675    25.383146    -24.033358    34.794476    -45.457718    -5.537098    8.509952    1.839116    3.156742    -51.370510    65.644516    -39.723137    5.976617    -18.241175    -30.953608    -49.596779    -13.761380    -6.497614    -7.694500    9.229995    2.625134    67.837585    3.457067    -8.449676    -13.966072    -31.559099    -1.746628    6.719740    -30.834490    17.928272    0.439662    -18.981066    17.062830    -17.389065    76.717377    -0.716200    -8.513089    2.995138    -6.893162    -1.292600    -11.342658    1.952547    1.166539    -27.019056    -17.966650    -5.967378    47.365242    11.461570    -2.837751    -8.327565    -2.433522    -2.715446    -13.249526    5.748682    
18.665211    76.756035    54.707462    -7.021928    -2.692092    179.549454    -13.260448    4.765349    -11.512390    9.003660    3.161356    -12.315443    9.537094    25.772459    -24.558535    35.448193    -45.332954    -5.738881    8.488810    1.204945    2.875328    -52.937935    64.467239    -37.922253    5.795259    -18.129097    -31.177729    -48.195198    -13.727790    -6.610833    -7.815754    9.405834    1.801852    65.225624    0.038085    -8.779326    -13.270778    -32.471497    -0.863209    4.623347    -31.914522    18.629408    1.524039    -20.862986    15.142317    -24.042828    80.699936    1.297280    -7.466439    0.914943    -1.185847    -1.251639    -10.478473    1.878501    1.932531    -26.191065    -16.023195    -6.117267    47.485275    12.063999    -3.026556    -8.791891    -1.928065    -2.809608    -12.908507    5.918076    
18.354481    76.581146    54.327785    -7.030725    -1.880172    176.463348    -13.401360    4.904058    -11.501672    8.955338    3.289932    -12.335714    10.234525    25.863111    -24.970003    34.653385    -45.718002    -6.420888    8.869722    1.172701    2.348186    -53.195587    63.126625    -37.869072    7.054226    -16.472401    -30.778185    -47.292301    -12.105749    -5.849287    -7.849794    9.528554    0.785429    63.190346    -1.194232    -9.227224    -12.899832    -33.996853    1.115302    2.575583    -33.549450    18.185993    2.404804    -22.632107    13.627054    -31.290298    84.246941    8.267072    -6.753983    0.130343    0.302853    -1.397406    -10.725693    2.101101    2.880657    -25.313944    -13.733032    -6.470910    47.619549    13.150723    -3.313396    -9.420582    -2.236482    -2.856747    -12.741611    6.002620    
18.007067    76.419716    53.937626    -7.027377    -1.025757    173.183365    -13.529902    4.936198    -11.409842    8.798746    3.518607    -12.266378    10.743329    26.230381    -25.393484    34.575958    -46.181679    -6.677999    9.144517    0.925637    2.208963    -51.873795    62.380486    -39.282433    8.472969    -15.670047    -29.805336    -47.117970    -10.873765    -6.118467    -7.925043    9.704319    -0.009541    60.493759    -5.141310    -9.324780    -11.692722    -34.126362    3.767779    0.676277    -33.718449    17.778334    3.284018    -24.078756    11.219965    -58.621841    86.028908    39.349564    -7.073867    0.170379    -2.183314    -0.728390    -10.645225    1.094582    3.848353    -24.411793    -11.317954    -7.024591    47.714497    13.594706    -3.623279    -10.205878    -1.766887    -2.921448    -12.277424    6.097363    
